<svg width="42" height="42" viewBox="0 0 42 42" fill="none" xmlns="http://www.w3.org/2000/svg">
<rect x="0.375" y="0.375" width="41.25" height="41.25" rx="5.625" stroke="white" stroke-width="0.75"/>
<path d="M28.3766 28.5366C24.9724 28.5366 22.8806 26.3218 22.8806 22.7944C22.8806 19.3491 24.9929 17.0317 28.2536 17.0317C31.1862 17.0317 33.4831 18.8774 33.4831 22.6714V23.5327H25.8747C25.8747 25.2144 26.8796 26.2603 28.4382 26.2603C29.4636 26.2603 30.2018 25.8091 30.5095 25.1323H33.4011C32.9704 27.1831 31.1247 28.5366 28.3766 28.5366ZM25.8747 21.6255H30.612C30.612 20.272 29.6686 19.3081 28.3151 19.3081C26.9206 19.3081 25.926 20.3438 25.8747 21.6255Z" fill="white"/>
<path d="M11.8392 28.311H8.51691L13.6644 13.4634H17.6224L22.7493 28.311H19.4476L18.3401 24.8862H12.9671L11.8392 28.311ZM13.7464 22.4868H17.5609L15.6946 16.8062H15.5921L13.7464 22.4868Z" fill="white"/>
</svg>
