<svg width="42" height="42" viewBox="0 0 42 42" fill="none" xmlns="http://www.w3.org/2000/svg">
<rect x="0.375" y="0.375" width="41.25" height="41.25" rx="5.625" stroke="white" stroke-width="0.75"/>
<path d="M14.1638 24.7118L18.5909 22.2292L18.6654 22.0135L18.5909 21.8936H18.375L17.6352 21.848L15.1055 21.7795L12.9118 21.6885L10.7861 21.5745L10.2514 21.4604L9.75 20.8003L9.80143 20.471L10.2509 20.1691L10.8954 20.2253L12.3187 20.3227L14.4552 20.47L16.005 20.561L18.3005 20.7992H18.6654L18.7168 20.652L18.592 20.561L18.4945 20.47L16.2836 18.973L13.8905 17.391L12.637 16.4798L11.9593 16.0183L11.6175 15.5857L11.4702 14.6413L12.0857 13.964L12.9123 14.0202L13.1234 14.0764L13.9607 14.7205L15.7489 16.1039L18.0841 17.8225L18.4259 18.1063L18.5625 18.0088L18.5791 17.9403L18.4259 17.6838L17.1557 15.3897L15.8004 13.056L15.1982 12.088L15.0386 11.5082C14.9823 11.27 14.9411 11.0692 14.9411 10.825L15.6412 9.87474L16.0286 9.75L16.9629 9.87474L17.3571 10.2158L17.9373 11.543L18.878 13.6321L20.3368 16.4728L20.7637 17.3155L20.9914 18.0961L21.0766 18.3343H21.2239V18.1978L21.3439 16.5975L21.5657 14.6327L21.7816 12.1046L21.8561 11.3926L22.2086 10.5392L22.9093 10.0777L23.4562 10.3389L23.9057 10.983L23.8436 11.399L23.5762 13.1363L23.0523 15.8571L22.7105 17.679H22.9098L23.1375 17.4515L24.06 16.2276L25.6098 14.2917L26.2934 13.5234L27.0911 12.6748L27.6032 12.2711H28.5712L29.2838 13.3296L28.9645 14.4228L27.968 15.6863L27.1414 16.7566L25.9564 18.3509L25.2166 19.6262L25.2852 19.7279L25.4614 19.7113L28.1384 19.1417L29.5848 18.8804L31.3109 18.5844L32.092 18.9489L32.1771 19.3194L31.8702 20.077L30.0241 20.5326L27.8593 20.9652L24.6354 21.7276L24.5957 21.7565L24.6413 21.8127L26.0936 21.9492L26.715 21.9824H28.2359L31.0682 22.1934L31.808 22.6822L32.25 23.2802L32.1755 23.7358L31.0361 24.3156L29.4986 23.951L25.9098 23.0976L24.6793 22.7909H24.5089V22.8926L25.5343 23.8948L27.4136 25.5909L29.767 27.7774L29.887 28.3181L29.5848 28.7448L29.2655 28.6993L27.1977 27.1446L26.4 26.4448L24.5936 24.9249H24.4736V25.0844L24.8898 25.6932L27.0884 28.9959L27.2025 30.0089L27.0429 30.3381L26.4729 30.5373L25.8471 30.4233L24.5604 28.618L23.2323 26.5846L22.1614 24.7627L22.0307 24.8371L21.3986 31.6413L21.1023 31.9887L20.4188 32.25L19.8487 31.8174L19.5466 31.1177L19.8487 29.7342L20.2136 27.9289L20.5098 26.4941L20.7771 24.7113L20.9368 24.1191L20.9261 24.0795L20.7954 24.0961L19.4507 25.941L17.4059 28.7031L15.788 30.434L15.4007 30.5871L14.7289 30.2396L14.7911 29.6186L15.1666 29.0661L17.4059 26.2189L18.7564 24.4543L19.6286 23.4355L19.6227 23.2882H19.5712L13.6232 27.1478L12.5641 27.2843L12.1082 26.8576L12.1645 26.1579L12.3804 25.9303L14.1686 24.7006L14.1627 24.7065L14.1638 24.7118Z" fill="url(#paint0_linear_23_26)"/>
<defs>
<linearGradient id="paint0_linear_23_26" x1="21" y1="9.74946" x2="21" y2="32.2495" gradientUnits="userSpaceOnUse">
<stop stop-color="white"/>
<stop offset="1" stop-color="#EEEEEE"/>
</linearGradient>
</defs>
</svg>
