<svg width="17" height="17" viewBox="0 0 17 17" fill="none" xmlns="http://www.w3.org/2000/svg">
<path d="M4.44603 12.4982C7.1171 16.0954 13.431 15.0193 14.193 14.4055C14.6998 13.6579 15.171 11.6452 13.7439 8.69448C11.4867 4.02738 9.50435 4.22394 8.06895 4.31381C6.80158 4.39316 1.10718 8.0016 4.44603 12.4982Z" fill="#F35257"/>
<path d="M3.36769 9.75326C5.51565 10.2359 6.63327 8.39156 6.92359 7.40908C6.47351 6.90041 5.38225 5.85998 4.61776 5.76765C3.66214 5.65222 2.06097 6.74205 0.897879 7.75726C-0.265207 8.77248 0.682733 9.14999 3.36769 9.75326Z" fill="#3D7514"/>
<path d="M5.48094 3.55513C4.18686 5.3447 5.43955 7.10274 6.22766 7.75806C6.87342 7.54392 8.26182 6.94855 8.6494 6.28027C9.13387 5.44493 8.76613 3.53887 8.29351 2.0661C7.82088 0.593325 7.09855 1.31817 5.48094 3.55513Z" fill="#3D7514"/>
</svg>
