<svg width="16" height="16" viewBox="0 0 16 16" fill="none" xmlns="http://www.w3.org/2000/svg">
<path d="M15.5776 11.6739C14.6297 14.2012 12.1915 16 9.33319 16C8.85373 16 8.38602 15.9493 7.9352 15.8531L9.66673 12.7585L15.5776 11.6739ZM6.95348 15.5626C5.9351 15.1733 5.03671 14.5417 4.32883 13.738L8.33323 13.0031L6.95348 15.5626ZM3.69303 12.8895C3.40745 12.4375 3.1747 11.9489 3.00348 11.4322L4.77768 10.8821L3.69303 12.8895ZM8.77784 11.914L4.99982 12.6712L6.18902 10.4444L10.111 9.22815L8.77784 11.914ZM15.7398 7.48299C15.9091 8.07042 16 8.69124 16 9.33336C16 9.72658 15.966 10.1121 15.9007 10.4867L10.111 11.6469L11.4445 8.81482L15.7398 7.48299ZM9.33319 2.66669C11.9663 2.66669 14.2431 4.19346 15.3264 6.40977L2.78492 10.5903C2.74641 10.3883 2.71683 10.1831 2.69698 9.97501C2.6769 9.76386 2.66669 9.54972 2.66669 9.33336C2.66671 5.65161 5.65136 2.66674 9.33319 2.66669Z" fill="url(#paint0_linear_80_7436)"/>
<circle cx="1.66667" cy="1.66667" r="1.66667" fill="url(#paint1_linear_80_7436)"/>
<defs>
<linearGradient id="paint0_linear_80_7436" x1="15.5079" y1="13.0022" x2="4.50132" y2="5.16399" gradientUnits="userSpaceOnUse">
<stop stop-color="#29374E"/>
<stop offset="1" stop-color="#125BA6"/>
</linearGradient>
<linearGradient id="paint1_linear_80_7436" x1="0.666667" y1="0.666667" x2="2.83333" y2="2.83333" gradientUnits="userSpaceOnUse">
<stop stop-color="#33AE43"/>
<stop offset="1" stop-color="#1F8E46"/>
</linearGradient>
</defs>
</svg>
