<svg width="42" height="42" viewBox="0 0 42 42" fill="none" xmlns="http://www.w3.org/2000/svg">
<rect x="0.375" y="0.375" width="41.25" height="41.25" rx="5.625" stroke="white" stroke-width="0.75"/>
<path fill-rule="evenodd" clip-rule="evenodd" d="M20.8432 9.75H17.1714C15.1373 9.75 13.5 11.3759 13.5 13.3962C13.5 15.4164 15.1373 17.0422 17.1714 17.0422H20.8432V9.75Z" fill="white"/>
<path fill-rule="evenodd" clip-rule="evenodd" d="M24.8287 9.75H21.1569V17.0422H24.8287C26.8628 17.0422 28.5001 15.4164 28.5001 13.3962C28.5001 11.3759 26.8628 9.75 24.8287 9.75Z" fill="white"/>
<path fill-rule="evenodd" clip-rule="evenodd" d="M20.8432 17.3537H17.1714C15.1373 17.3537 13.5 18.9796 13.5 20.9999C13.5 23.0201 15.1373 24.646 17.1714 24.646H20.8432V17.3537Z" fill="white"/>
<path fill-rule="evenodd" clip-rule="evenodd" d="M27.935 20.7194C27.935 18.8541 26.4246 17.3537 24.5459 17.3537C22.6673 17.3537 21.1569 18.8541 21.1569 20.7194C21.1569 22.5849 22.6673 24.0851 24.5459 24.0851C26.4246 24.0851 27.935 22.5849 27.935 20.7194Z" fill="white"/>
<path fill-rule="evenodd" clip-rule="evenodd" d="M20.8432 24.9578H17.1714C15.1373 24.9578 13.5 26.5837 13.5 28.6038C13.5 30.6242 15.1373 32.2501 17.1714 32.2501C19.2059 32.2501 20.8432 30.6242 20.8432 28.6038V24.9578Z" fill="white"/>
</svg>
