<svg width="42" height="42" viewBox="0 0 42 42" fill="none" xmlns="http://www.w3.org/2000/svg">
<rect x="0.375" y="0.375" width="41.25" height="41.25" rx="5.625" stroke="white" stroke-width="0.75"/>
<path d="M23.8957 28.4238V17.2881H26.8283V19.2158H26.9514C27.3615 17.8418 28.3869 17.124 29.6379 17.124C29.9455 17.124 30.3351 17.165 30.6017 17.2266V19.9336C30.3146 19.8516 29.7404 19.7695 29.3098 19.7695C27.9357 19.7695 26.9308 20.7334 26.9308 22.0869V28.4238H23.8957Z" fill="white"/>
<path d="M11.3983 28.4238V13.5762H17.2225C20.6063 13.5762 22.534 15.6475 22.534 18.5801C22.534 21.5537 20.5652 23.584 17.1404 23.584H14.4744V28.4238H11.3983ZM14.4744 21.1025H16.6483C18.4734 21.1025 19.3553 20.0771 19.3553 18.5801C19.3553 17.1035 18.4734 16.0986 16.6483 16.0986H14.4744V21.1025Z" fill="white"/>
</svg>
