<svg width="42" height="42" viewBox="0 0 42 42" fill="none" xmlns="http://www.w3.org/2000/svg">
<rect x="0.375" y="0.375" width="41.25" height="41.25" rx="5.625" stroke="white" stroke-width="0.75"/>
<path d="M27.1154 28.8442V17.7085H30.1506V28.8442H27.1154ZM28.633 16.2524C27.7101 16.2524 26.9719 15.5552 26.9719 14.7144C26.9719 13.853 27.7101 13.1558 28.633 13.1558C29.5353 13.1558 30.2736 13.853 30.2736 14.7144C30.2736 15.5552 29.5353 16.2524 28.633 16.2524Z" fill="white"/>
<path d="M15.0486 28.8442H11.7264L16.8738 13.9966H20.8318L25.9588 28.8442H22.657L21.5496 25.4194H16.1766L15.0486 28.8442ZM16.9559 23.02H20.7703L18.9041 17.3394H18.8016L16.9559 23.02Z" fill="white"/>
</svg>
