<svg width="42" height="42" viewBox="0 0 42 42" fill="none" xmlns="http://www.w3.org/2000/svg">
<rect x="0.375" y="0.375" width="41.25" height="41.25" rx="5.625" stroke="white" stroke-width="0.75"/>
<path d="M28.8791 20.4771C28.756 19.6978 28.0588 19.1851 27.0539 19.1851C26.0695 19.1851 25.3107 19.6567 25.3312 20.3335C25.3107 20.8257 25.7209 21.2153 26.7668 21.4409L28.756 21.8511C30.9094 22.3022 31.9553 23.2661 31.9758 24.8657C31.9553 27.0601 29.9865 28.5366 27.0334 28.5366C24.0187 28.5366 22.2551 27.1831 22.009 25.0093H25.0646C25.2082 25.8911 25.926 26.3423 27.0334 26.3423C28.1408 26.3423 28.8791 25.8911 28.8791 25.1733C28.8791 24.5991 28.4074 24.2505 27.3615 24.0249L25.5158 23.6558C23.4035 23.2456 22.2961 22.1382 22.3166 20.4976C22.2961 18.3647 24.1418 17.0317 27.0129 17.0317C29.8224 17.0317 31.5656 18.3647 31.7297 20.4771H28.8791Z" fill="white"/>
<path d="M10.0242 28.311V13.4634H15.8484C19.2322 13.4634 21.16 15.5347 21.16 18.4673C21.16 21.4409 19.1912 23.4712 15.7664 23.4712H13.1004V28.311H10.0242ZM13.1004 20.9897H15.2742C17.0994 20.9897 17.9813 19.9644 17.9813 18.4673C17.9813 16.9907 17.0994 15.9858 15.2742 15.9858H13.1004V20.9897Z" fill="white"/>
</svg>
