<svg width="42" height="42" viewBox="0 0 42 42" fill="none" xmlns="http://www.w3.org/2000/svg">
<rect x="0.375" y="0.375" width="41.25" height="41.25" rx="5.625" stroke="white" stroke-width="0.75"/>
<path d="M22.3986 28.5161C19.8557 28.5161 17.8664 26.4858 17.8664 22.7739C17.8664 18.9595 19.9377 17.0522 22.3986 17.0522C24.2648 17.0522 25.1467 18.1597 25.5568 19.062H25.6594V13.4839H28.6945V28.3315H25.7004V26.5474H25.5568C25.1262 27.4702 24.2033 28.5161 22.3986 28.5161ZM23.342 26.0962C24.8596 26.0962 25.7209 24.7632 25.7209 22.7534C25.7209 20.7437 24.8596 19.4722 23.342 19.4722C21.8039 19.4722 20.9836 20.8052 20.9836 22.7534C20.9836 24.7222 21.8039 26.0962 23.342 26.0962Z" fill="white"/>
<path d="M16.3817 13.4839V28.3315H13.3055V13.4839H16.3817Z" fill="white"/>
</svg>
