<svg width="1424" height="750" viewBox="0 0 1424 750" fill="none" xmlns="http://www.w3.org/2000/svg">
<path d="M1422 375C1422.38 374.676 1422.38 374.675 1422.38 374.672C1422.37 374.669 1422.37 374.664 1422.37 374.658C1422.36 374.647 1422.34 374.63 1422.32 374.607C1422.28 374.562 1422.22 374.494 1422.15 374.403C1421.99 374.223 1421.76 373.954 1421.45 373.6C1420.84 372.891 1419.92 371.84 1418.71 370.469C1416.28 367.727 1412.67 363.706 1407.94 358.59C1398.48 348.358 1384.52 333.743 1366.55 316.205C1330.61 281.13 1278.61 234.363 1214.34 187.596C1085.82 94.069 908.214 0.5 712 0.5C515.786 0.5 338.182 94.069 209.66 187.596C145.394 234.363 93.3872 281.13 57.4463 316.205C39.4758 333.743 25.5206 348.358 16.0576 358.59C11.3261 363.706 7.71726 367.727 5.29102 370.469C4.078 371.84 3.16037 372.891 2.5459 373.6C2.23868 373.954 2.00734 374.223 1.85254 374.403C1.77513 374.494 1.71668 374.562 1.67773 374.607C1.65846 374.63 1.64357 374.647 1.63379 374.658C1.62888 374.664 1.6255 374.669 1.62305 374.672C1.62053 374.675 1.6192 374.676 2 375M1422 375C1422.38 375.323 1422.38 375.325 1422.38 375.328C1422.37 375.331 1422.37 375.336 1422.37 375.342C1422.36 375.353 1422.34 375.37 1422.32 375.393C1422.28 375.438 1422.22 375.506 1422.15 375.597C1421.99 375.777 1421.76 376.046 1421.45 376.4C1420.84 377.109 1419.92 378.16 1418.71 379.531C1416.28 382.273 1412.67 386.294 1407.94 391.41C1398.48 401.642 1384.52 416.257 1366.55 433.795C1330.61 468.87 1278.61 515.637 1214.34 562.404C1085.82 655.931 908.214 749.5 712 749.5C515.786 749.5 338.182 655.931 209.66 562.404C145.394 515.637 93.3872 468.87 57.4463 433.795C39.4758 416.257 25.5206 401.642 16.0576 391.41C11.3261 386.294 7.71726 382.273 5.29102 379.531C4.07801 378.16 3.16037 377.109 2.5459 376.4C2.23868 376.046 2.00734 375.777 1.85254 375.597C1.77513 375.506 1.71668 375.438 1.67773 375.393C1.65846 375.37 1.64357 375.353 1.63379 375.342C1.62888 375.336 1.6255 375.331 1.62305 375.328C1.62054 375.325 1.61975 375.323 2 375M1422 375L1422.38 375.324L1422.66 375L1422.38 374.676L1422 375ZM2 375L1.61914 375.324L1.34375 375L1.61914 374.676L2 375Z" fill="#2A2A2A" stroke="#D4D4D4"/>
</svg>
